<svg width="19" height="20" viewBox="0 0 19 20" fill="none" xmlns="http://www.w3.org/2000/svg">
<path d="M18.1307 6.303C18.1206 5.54563 17.9788 4.79578 17.7117 4.087C17.48 3.48916 17.1262 2.9462 16.6728 2.49283C16.2195 2.03947 15.6765 1.68565 15.0787 1.454C14.379 1.19136 13.6398 1.04935 12.8927 1.034C11.9307 0.991004 11.6257 0.979004 9.18366 0.979004C6.74166 0.979004 6.42866 0.979004 5.47366 1.034C4.72682 1.04946 3.98801 1.19147 3.28866 1.454C2.69072 1.68549 2.14769 2.03925 1.6943 2.49264C1.24091 2.94602 0.887153 3.48906 0.655664 4.087C0.392495 4.78614 0.250787 5.52511 0.236664 6.272C0.193664 7.235 0.180664 7.54 0.180664 9.982C0.180664 12.424 0.180664 12.736 0.236664 13.692C0.251664 14.44 0.392664 15.178 0.655664 15.879C0.887542 16.4768 1.24156 17.0196 1.6951 17.4728C2.14864 17.926 2.69173 18.2796 3.28966 18.511C3.9871 18.7842 4.72604 18.9364 5.47466 18.961C6.43766 19.004 6.74266 19.017 9.18466 19.017C11.6267 19.017 11.9397 19.017 12.8947 18.961C13.6418 18.9463 14.381 18.8046 15.0807 18.542C15.6784 18.3101 16.2212 17.9562 16.6745 17.5028C17.1278 17.0495 17.4817 16.5067 17.7137 15.909C17.9767 15.209 18.1177 14.471 18.1327 13.722C18.1757 12.76 18.1887 12.455 18.1887 10.012C18.1867 7.57 18.1867 7.26 18.1307 6.303ZM9.17766 14.6C6.62366 14.6 4.55466 12.531 4.55466 9.977C4.55466 7.423 6.62366 5.354 9.17766 5.354C10.4038 5.354 11.5796 5.84107 12.4466 6.70805C13.3136 7.57503 13.8007 8.75091 13.8007 9.977C13.8007 11.2031 13.3136 12.379 12.4466 13.246C11.5796 14.1129 10.4038 14.6 9.17766 14.6ZM13.9847 6.261C13.8431 6.26114 13.7028 6.23334 13.572 6.17921C13.4411 6.12509 13.3222 6.04569 13.2221 5.94556C13.122 5.84543 13.0426 5.72654 12.9885 5.59569C12.9343 5.46484 12.9065 5.32461 12.9067 5.183C12.9067 5.0415 12.9345 4.90139 12.9887 4.77066C13.0428 4.63993 13.1222 4.52115 13.2223 4.4211C13.3223 4.32104 13.4411 4.24167 13.5718 4.18752C13.7026 4.13337 13.8427 4.1055 13.9842 4.1055C14.1257 4.1055 14.2658 4.13337 14.3965 4.18752C14.5272 4.24167 14.646 4.32104 14.7461 4.4211C14.8461 4.52115 14.9255 4.63993 14.9796 4.77066C15.0338 4.90139 15.0617 5.0415 15.0617 5.183C15.0617 5.779 14.5797 6.261 13.9847 6.261Z" fill="#5D83D3"/>
<path d="M9.17756 12.98C10.8361 12.98 12.1806 11.6355 12.1806 9.977C12.1806 8.31849 10.8361 6.974 9.17756 6.974C7.51905 6.974 6.17456 8.31849 6.17456 9.977C6.17456 11.6355 7.51905 12.98 9.17756 12.98Z" fill="#5D83D3"/>
</svg>
