<svg width="20" height="17" viewBox="0 0 20 17" fill="none" xmlns="http://www.w3.org/2000/svg">
<path d="M17.633 4.85416C17.646 5.02916 17.646 5.20316 17.646 5.37716C17.646 10.7022 13.593 16.8382 6.186 16.8382C3.904 16.8382 1.784 16.1772 0 15.0292C0.324 15.0662 0.636 15.0792 0.973 15.0792C2.78599 15.0835 4.54765 14.4773 5.974 13.3582C5.13342 13.3429 4.31858 13.0656 3.64324 12.5649C2.9679 12.0642 2.46578 11.3651 2.207 10.5652C2.456 10.6022 2.706 10.6272 2.968 10.6272C3.329 10.6272 3.692 10.5772 4.029 10.4902C3.11676 10.306 2.29647 9.81151 1.70762 9.09085C1.11876 8.37018 0.797693 7.46781 0.799 6.53716V6.48716C1.336 6.78616 1.959 6.97316 2.619 6.99816C2.06609 6.63075 1.61272 6.13218 1.29934 5.54695C0.98596 4.96172 0.822313 4.30802 0.823 3.64416C0.823 2.89616 1.022 2.21016 1.371 1.61216C2.38314 2.85718 3.6455 3.87572 5.07634 4.60182C6.50717 5.32792 8.07456 5.74538 9.677 5.82716C9.615 5.52716 9.577 5.21616 9.577 4.90416C9.57674 4.37512 9.68074 3.85122 9.88308 3.3624C10.0854 2.87358 10.3821 2.42943 10.7562 2.05535C11.1303 1.68126 11.5744 1.38457 12.0632 1.18224C12.5521 0.979905 13.076 0.875897 13.605 0.87616C14.765 0.87616 15.812 1.36216 16.548 2.14816C17.4498 1.97378 18.3145 1.64458 19.104 1.17516C18.8034 2.10598 18.1738 2.89526 17.333 3.39516C18.1328 3.30394 18.9144 3.09361 19.652 2.77116C19.1011 3.57426 18.4185 4.2785 17.633 4.85416Z" fill="#5D83D3"/>
</svg>
