<svg width="21" height="16" viewBox="0 0 21 16" fill="none" xmlns="http://www.w3.org/2000/svg">
<path d="M13.0035 0.257996C12.8049 0.613683 12.6279 0.981015 12.4735 1.358C10.9563 1.11805 9.41075 1.11805 7.89351 1.358C7.7391 0.981015 7.56211 0.613683 7.36351 0.257996C5.9343 0.502197 4.54492 0.939533 3.23351 1.558C0.888452 4.94228 -0.175052 9.05095 0.233511 13.148C1.76175 14.2969 3.47697 15.1731 5.30351 15.738C5.71942 15.1886 6.09061 14.6067 6.41351 13.998C5.81758 13.7783 5.24481 13.5003 4.70351 13.168C4.85197 13.0692 4.99241 12.9589 5.12351 12.838C6.70197 13.5983 8.43148 13.9931 10.1835 13.9931C11.9355 13.9931 13.6651 13.5983 15.2435 12.838C15.3835 12.958 15.5235 13.068 15.6635 13.168C15.1193 13.4976 14.5471 13.7787 13.9535 14.008C14.263 14.6305 14.6243 15.226 15.0335 15.788C16.8578 15.225 18.57 14.3486 20.0935 13.198C20.5119 9.1002 19.4475 4.98818 17.0935 1.608C15.7968 0.976733 14.4212 0.522666 13.0035 0.257996ZM6.86351 10.808C6.36309 10.7721 5.89605 10.5437 5.56043 10.1708C5.22481 9.79785 5.04671 9.30942 5.06351 8.808C5.04417 8.30591 5.2214 7.81608 5.55752 7.44261C5.89365 7.06913 6.36217 6.84147 6.86351 6.808C7.36485 6.84147 7.83337 7.06913 8.1695 7.44261C8.50562 7.81608 8.68285 8.30591 8.66351 8.808C8.68285 9.31008 8.50562 9.79991 8.1695 10.1734C7.83337 10.5469 7.36485 10.7745 6.86351 10.808ZM13.5035 10.808C13.0031 10.7721 12.5361 10.5437 12.2004 10.1708C11.8648 9.79785 11.6867 9.30942 11.7035 8.808C11.6842 8.30591 11.8614 7.81608 12.1975 7.44261C12.5336 7.06913 13.0022 6.84147 13.5035 6.808C14.0058 6.83897 14.4758 7.0659 14.8125 7.43994C15.1491 7.81399 15.3254 8.30525 15.3035 8.808C15.3254 9.31074 15.1491 9.802 14.8125 10.176C14.4758 10.5501 14.0058 10.777 13.5035 10.808Z" fill="#5D83D3"/>
</svg>
