<svg width="1444" height="126" viewBox="0 0 1444 126" fill="none" xmlns="http://www.w3.org/2000/svg">
<path opacity="0.25" d="M0 125.989V72.9654C57.4728 47.536 124.578 36.1157 190.013 40.8923C274.628 47.0435 353.965 79.0479 438.713 83.8474C527.513 88.8416 616.146 64.5119 701.122 43.4582C784.427 22.8397 867.443 14.9589 952.949 28.4754C996.423 35.3483 1036.95 48.9106 1078.56 62.0835C1189.97 97.3525 1338.51 142.358 1443.13 65.8864V125.989H0Z" fill="#E7E7E7"/>
<path opacity="0.5" d="M0 125.989V107.879C15.6339 83.6985 33.2402 60.8578 57.3525 43.4582C119.552 -1.46712 198.431 -1.15785 270.082 21.0872C307.544 32.7137 342.347 50.9495 377.921 66.6768C427.131 88.4407 479.818 119.368 535.258 123.572C578.865 126.837 620.523 112.782 653.836 87.4213C692.043 58.3378 728.782 16.4022 778.462 3.80204C827.096 -8.55757 876.295 11.4652 921.729 31.614C967.164 51.7628 1012.12 76.2873 1062.34 80.9265C1134.17 87.6274 1198.57 54.7181 1265.46 36.4364C1301.78 26.5167 1336.41 29.3689 1370.19 45.0275C1397.17 57.5016 1427.92 75.8749 1443.13 101.43V125.989H0Z" fill="#E7E7E7"/>
<path d="M0 126V121.169C180.307 75.3779 377.728 64.8074 572.238 89.4749C623.951 96.03 673.534 106.738 725.704 112.178C796.658 119.582 860.973 101.676 924.808 81.8044C995.678 59.7451 1065.51 44.284 1143.92 48.7799C1247.99 54.7859 1351.33 87.9991 1443.13 121.547V126H0Z" fill="#E7E7E7"/>
</svg>
