<svg width="1457" height="126" viewBox="0 0 1457 126" fill="none" xmlns="http://www.w3.org/2000/svg">
<path opacity="0.25" d="M0 125.989V72.9654C58.025 47.536 125.776 36.1157 191.838 40.8923C277.267 47.0435 357.366 79.0479 442.928 83.8474C532.582 88.8416 622.066 64.5119 707.859 43.4582C791.964 22.8397 875.778 14.9589 962.106 28.4754C1006 35.3483 1046.92 48.9106 1088.93 62.0835C1201.41 97.3525 1351.37 142.358 1457 65.8864V125.989H0Z" fill="#E7E7E7"/>
<path opacity="0.5" d="M0 125.989V107.879C15.7842 83.6985 33.5596 60.8578 57.9036 43.4582C120.7 -1.46712 200.337 -1.15785 272.678 21.0872C310.499 32.7137 345.637 50.9495 381.552 66.6768C431.236 88.4407 484.428 119.368 540.401 123.572C584.427 126.837 626.486 112.782 660.118 87.4213C698.692 58.3378 735.785 16.4022 785.942 3.80204C835.043 -8.55757 884.715 11.4652 930.586 31.614C976.457 51.7628 1021.84 76.2873 1072.55 80.9265C1145.07 87.6274 1210.09 54.7181 1277.62 36.4364C1314.29 26.5167 1349.25 29.3689 1383.36 45.0275C1410.59 57.5016 1441.64 75.8749 1457 101.43V125.989H0Z" fill="#E7E7E7"/>
<path d="M0 126V121.169C182.04 75.3779 381.358 64.8074 577.737 89.4749C629.946 96.03 680.006 106.738 732.677 112.178C804.313 119.582 869.246 101.676 933.694 81.8044C1005.24 59.7451 1075.75 44.284 1154.92 48.7799C1259.98 54.7859 1364.31 87.9991 1457 121.547V126H0Z" fill="#E7E7E7"/>
</svg>
